<?xml version="1.0" standalone="no"?>
<!DOCTYPE svg PUBLIC "-//W3C//DTD SVG 20010904//EN"
 "http://www.w3.org/TR/2001/REC-SVG-20010904/DTD/svg10.dtd">
<svg version="1.0" xmlns="http://www.w3.org/2000/svg"
 width="544.000000pt" height="687.000000pt" viewBox="0 0 544.000000 687.000000"
 preserveAspectRatio="xMidYMid meet">

<g transform="translate(0.000000,687.000000) scale(0.100000,-0.100000)"
fill="#6366f1" stroke="none">
<path d="M2515 6473 c-702 -355 -1213 -513 -2117 -654 l-276 -43 -7 -135 c-10
-174 1 -1073 15 -1256 45 -608 133 -1077 290 -1545 297 -884 864 -1609 1740
-2222 169 -119 383 -256 502 -322 l67 -37 40 21 c186 94 769 494 936 641 480
421 716 695 979 1132 158 265 260 490 374 832 129 384 213 799 257 1270 31
329 41 1255 16 1545 l-6 75 -65 8 c-281 33 -709 118 -1045 208 -521 139 -864
276 -1336 535 -64 35 -120 64 -125 64 -5 0 -112 -53 -239 -117z m459 -277
c593 -293 1168 -473 1892 -591 115 -19 217 -37 226 -40 20 -8 29 -225 29 -690
0 -353 -2 -384 -27 -700 -45 -558 -175 -1114 -365 -1557 -123 -288 -256 -519
-453 -788 -135 -185 -429 -490 -658 -682 -291 -245 -813 -598 -884 -598 -39 0
-379 218 -599 384 -281 211 -582 490 -779 719 -378 443 -635 928 -790 1495
-143 523 -203 982 -213 1647 -5 359 7 739 25 757 4 4 102 24 217 43 800 133
1429 342 2079 689 27 14 54 26 59 26 6 0 115 -51 241 -114z m2297 -1913 c-12
-20 -14 -14 -5 12 4 9 9 14 11 11 3 -2 0 -13 -6 -23z m0 -170 c8 -10 9 -14 2
-10 -6 4 -14 3 -18 -3 -3 -5 -12 -10 -18 -10 -7 0 -3 6 8 12 19 11 19 11 0 19
-16 6 -16 8 -4 8 9 1 23 -7 30 -16z m16 -55 c-3 -8 -6 -5 -6 6 -1 11 2 17 5
13 3 -3 4 -12 1 -19z m-84 -8 c3 -11 0 -23 -5 -27 -6 -3 -8 -1 -4 5 3 6 2 13
-4 17 -6 4 -8 11 -5 16 9 13 12 11 18 -11z m42 -48 c-3 -3 -11 0 -18 7 -9 10
-8 11 6 5 10 -3 15 -9 12 -12z m22 -4 c-3 -8 -6 -5 -6 6 -1 11 2 17 5 13 3 -3
4 -12 1 -19z m12 -66 c-1 -15 -2 -15 -6 1 -2 9 -9 14 -15 11 -7 -4 -8 -2 -4 5
10 15 26 4 25 -17z m-177 -857 c-2 -14 -8 -28 -13 -31 -5 -3 -7 2 -4 10 3 9 7
23 10 31 7 24 13 17 7 -10z m-41 -136 c-9 -22 -10 -22 -10 -3 -1 11 2 24 6 27
12 12 14 0 4 -24z m-100 -272 c-10 -9 -11 -8 -5 6 3 10 9 15 12 12 3 -3 0 -11
-7 -18z"/>
<path d="M2535 6149 c-567 -292 -1210 -496 -1924 -609 -101 -16 -187 -32 -190
-36 -12 -12 -6 -1075 7 -1229 108 -1258 464 -2098 1198 -2831 282 -281 619
-543 999 -776 l110 -67 45 26 c94 55 270 169 405 263 747 520 1246 1123 1529
1846 135 346 243 784 295 1204 45 357 55 537 54 975 0 231 -5 460 -9 510 l-9
89 -140 23 c-472 78 -758 145 -1126 267 -381 126 -721 270 -967 410 -35 20
-69 35 -75 35 -7 -1 -97 -46 -202 -100z m259 -281 c23 -7 59 -30 82 -53 97
-98 78 -251 -41 -320 l-45 -27 0 -183 0 -183 53 -7 c396 -52 694 -311 799
-692 18 -66 22 -106 22 -253 1 -153 -2 -185 -22 -255 -148 -515 -653 -811
-1150 -675 -211 58 -415 205 -539 390 -155 231 -201 524 -127 815 37 148 157
335 286 445 139 118 257 174 448 214 l105 21 3 180 2 180 -47 35 c-59 44 -90
89 -99 145 -12 86 36 172 120 211 58 27 90 29 150 12z m1014 -1482 l37 -34 3
-195 c3 -154 0 -202 -12 -230 -17 -42 -55 -70 -88 -65 -21 3 -23 8 -23 56 4
509 4 502 25 502 11 0 37 -15 58 -34z m-2078 -256 c0 -316 2 -310 -73 -241
l-42 39 -4 152 c-4 201 2 252 41 296 18 21 39 34 54 34 l24 0 0 -280z m204
-945 c41 -53 192 -170 276 -214 129 -67 274 -108 447 -126 73 -7 251 10 343
32 176 44 367 150 498 277 l73 71 127 -44 c411 -143 461 -163 506 -202 25 -22
57 -65 73 -97 27 -55 28 -63 31 -236 l4 -179 -536 -536 -536 -536 0 219 0 219
78 78 77 79 100 9 100 9 155 159 c138 141 167 165 246 208 128 69 144 82 144
114 0 30 -16 51 -39 51 -8 0 -78 -34 -156 -76 -134 -73 -146 -82 -280 -215
l-140 -139 -86 0 -86 0 -106 -107 -107 -108 0 -295 0 -295 -87 -88 -88 -87 -2
458 -3 457 164 164 164 164 52 -13 c72 -17 134 -8 183 27 50 35 76 78 85 140
l7 48 140 78 c203 113 215 122 215 157 0 37 -32 72 -57 63 -10 -4 -58 -32
-108 -63 -124 -77 -221 -130 -238 -130 -7 0 -22 10 -33 21 -27 31 -93 59 -140
59 -53 0 -141 -44 -165 -84 -35 -57 -44 -101 -30 -158 l12 -52 -181 -181 -180
-180 0 -541 0 -541 -60 -52 c-68 -59 -60 -60 -137 13 l-43 40 0 541 0 542
-179 182 -179 183 5 72 c6 74 -6 114 -46 160 -42 48 -142 70 -207 46 -15 -6
-44 -24 -65 -41 l-39 -30 -175 100 c-97 56 -182 101 -190 101 -17 0 -45 -38
-45 -60 0 -9 10 -26 23 -37 21 -19 223 -135 315 -182 36 -18 42 -26 42 -54 1
-46 31 -107 73 -144 58 -51 116 -61 217 -38 22 5 45 -14 182 -152 l157 -159 3
-462 3 -462 -87 87 -88 88 0 295 -1 295 -107 108 -108 107 -95 0 -95 0 -145
146 c-143 144 -145 146 -279 215 -74 38 -143 69 -153 69 -9 0 -23 -11 -29 -25
-18 -40 13 -71 132 -132 101 -51 111 -59 260 -214 l155 -161 100 -5 100 -6 80
-78 79 -77 1 -221 0 -221 -265 264 c-146 145 -388 385 -539 533 l-273 268 5
180 c5 204 12 235 70 301 52 59 88 76 377 177 135 46 252 87 260 90 33 12 49
6 74 -28z m179 -546 c49 -22 62 -101 25 -143 -52 -57 -158 -21 -158 54 0 79
63 121 133 89z m1346 -15 c44 -36 44 -93 1 -136 -28 -27 -36 -30 -73 -25 -55
7 -87 43 -87 97 0 48 44 90 95 90 21 0 45 -9 64 -26z"/>
<path d="M2677 5754 c-56 -30 -62 -101 -13 -150 43 -43 94 -47 131 -10 50 50
44 114 -14 153 -39 27 -65 28 -104 7z"/>
<path d="M2560 4845 c-229 -64 -418 -235 -503 -457 -30 -80 -32 -88 -32 -238
0 -137 3 -163 24 -225 84 -250 247 -411 491 -486 61 -19 97 -23 190 -23 101 1
126 4 205 32 131 44 218 96 305 182 89 87 151 187 187 297 32 97 36 268 10
375 -59 242 -239 444 -465 524 -67 23 -96 27 -217 30 -104 3 -154 0 -195 -11z
m293 -250 c211 -55 356 -235 359 -445 2 -141 -37 -245 -130 -342 -71 -74 -137
-117 -220 -140 -287 -79 -571 115 -605 413 -9 75 14 201 48 269 56 110 182
212 304 246 64 17 176 17 244 -1z"/>
<path d="M2672 4385 c-159 -50 -235 -221 -162 -365 25 -50 99 -114 148 -128
118 -36 261 18 307 115 10 21 22 57 25 81 7 41 6 42 -22 42 -41 0 -85 26 -103
60 -19 36 -19 107 0 140 8 14 14 28 15 32 0 11 -99 38 -134 37 -17 0 -50 -6
-74 -14z"/>
</g>
</svg>
